<?xml version="1.0" encoding="iso-8859-1"?>
<!-- Generator: Adobe Illustrator 19.0.0, SVG Export Plug-In . SVG Version: 6.00 Build 0)  -->
<svg version="1.1" id="Capa_1" xmlns="http://www.w3.org/2000/svg" xmlns:xlink="http://www.w3.org/1999/xlink" x="0px" y="0px"
	 viewBox="0 0 512.001 512.001" style="enable-background:new 0 0 512.001 512.001;" xml:space="preserve">
<g>
	<g>
		<path d="M256.001,241.255c-13.505,0-25.907,6.019-34.317,15.947c1.641,1.069,3.34,2.044,4.872,3.277
			c8.3,6.687,18.286,10.221,28.859,10.221c10.807,0,22.054-3.856,30.105-10.323c1.584-1.261,3.476-1.787,5.139-2.87
			C282.247,247.367,269.664,241.255,256.001,241.255z"/>
	</g>
</g>
<g>
	<g>
		<path d="M256.001,0C147.678,0,30.762,98.604,30.762,256.271c0,40.85,30.76,76.284,91.085,105.594
			c2.469-11.617,3.899-22.905,5.257-34.458c1.144-9.737,2.302-19.518,4.018-29.738c2.684-20.119,16.717-38.141,36.499-46.045
			c9.24-3.673,16.611-4.392,24.943-3.944c13.492-22.145,36.924-36.456,63.436-36.456c26.564,0,50.035,14.363,63.513,36.581
			c8.566-0.43,14.288-0.388,24.558,3.672c19.928,7.801,33.727,25.149,36.821,46.353c1.628,9.663,2.757,19.151,3.842,28.624
			c1.383,11.891,2.819,23.483,5.376,35.424c60.349-29.312,91.128-64.752,91.128-105.607C481.239,98.604,364.323,0,256.001,0z
			 M165.905,181.192c-8.293,0-15.016-6.723-15.016-15.016c0-8.295,6.723-15.016,15.016-15.016c8.293,0,15.016,6.721,15.016,15.016
			C180.921,174.469,174.198,181.192,165.905,181.192z M346.096,181.192c-8.293,0-15.016-6.723-15.016-15.016
			c0-8.295,6.723-15.016,15.016-15.016c8.293,0,15.016,6.721,15.016,15.016C361.112,174.469,354.389,181.192,346.096,181.192z"/>
	</g>
</g>
<g>
	<g>
		<path d="M391.569,445.807l-13.549-27.07c-16.82-33.669-20.001-62.106-23.11-88.823c-1.041-8.989-2.097-17.993-3.725-27.729
			c-1.525-10.411-8.285-18.916-18.124-22.773c-9.966-3.928-20.543-2.152-28.741,4.385c-13.403,10.763-31.22,16.937-48.905,16.937
			c-17.479,0-33.976-5.821-47.701-16.864c-7.927-6.388-18.957-8.344-28.947-4.356c-9.575,3.827-16.629,12.699-18.022,23.11
			c-1.628,9.722-2.728,19.034-3.813,28.258c-3.094,26.307-6.291,54.525-22.949,87.856l-13.549,27.07
			c-7.838,15.735-0.602,34.794,15.72,41.323c38.394,15.023,72.429,24.87,120.039,24.87c47.372,0,83.32-10.259,119.658-24.87
			C392.072,480.641,399.421,461.575,391.569,445.807z M240.985,437.463c0,8.3-6.716,15.016-15.016,15.016
			c-8.3,0-15.016-6.716-15.016-15.016v-15.016c0-8.3,6.716-15.016,15.016-15.016c8.3,0,15.016,6.716,15.016,15.016V437.463z
			 M301.048,437.463c0,8.3-6.716,15.016-15.016,15.016c-8.3,0-15.016-6.716-15.016-15.016v-15.016c0-8.3,6.716-15.016,15.016-15.016
			c8.3,0,15.016,6.716,15.016,15.016V437.463z"/>
	</g>
</g>
<g>
</g>
<g>
</g>
<g>
</g>
<g>
</g>
<g>
</g>
<g>
</g>
<g>
</g>
<g>
</g>
<g>
</g>
<g>
</g>
<g>
</g>
<g>
</g>
<g>
</g>
<g>
</g>
<g>
</g>
</svg>
